<svg width="531" height="376" viewBox="0 0 531 376" fill="none" xmlns="http://www.w3.org/2000/svg">
<path d="M53.658 58.538C42.306 58.538 36.63 64.676 36.63 76.952V86.06H67.32V101.702H37.026V191H18.018V76.754C18.018 66.326 21.054 58.076 27.126 52.004C33.198 45.932 41.712 42.896 52.668 42.896C56.892 42.896 60.852 43.424 64.548 44.48C68.244 45.536 71.412 47.054 74.052 49.034L68.31 63.488C63.954 60.188 59.07 58.538 53.658 58.538ZM181.441 86.06V191H163.423V175.16C159.595 180.572 154.513 184.796 148.177 187.832C141.973 190.736 135.175 192.188 127.783 192.188C113.791 192.188 102.769 188.36 94.7167 180.704C86.6647 172.916 82.6387 161.498 82.6387 146.45V86.06H101.647V144.272C101.647 154.436 104.089 162.158 108.973 167.438C113.857 172.586 120.853 175.16 129.961 175.16C139.993 175.16 147.913 172.124 153.721 166.052C159.529 159.98 162.433 151.4 162.433 140.312V86.06H181.441ZM246.238 192.188C237.658 192.188 229.408 191.066 221.488 188.822C213.568 186.446 207.364 183.476 202.876 179.912L210.796 164.864C215.416 168.164 221.026 170.804 227.626 172.784C234.226 174.764 240.892 175.754 247.624 175.754C264.256 175.754 272.572 171.002 272.572 161.498C272.572 158.33 271.45 155.822 269.206 153.974C266.962 152.126 264.124 150.806 260.692 150.014C257.392 149.09 252.64 148.1 246.436 147.044C237.988 145.724 231.058 144.206 225.646 142.49C220.366 140.774 215.812 137.87 211.984 133.778C208.156 129.686 206.242 123.944 206.242 116.552C206.242 107.048 210.202 99.458 218.122 93.782C226.042 87.974 236.668 85.07 250 85.07C256.996 85.07 263.992 85.928 270.988 87.644C277.984 89.36 283.726 91.67 288.214 94.574L280.096 109.622C271.516 104.078 261.418 101.306 249.802 101.306C241.75 101.306 235.612 102.626 231.388 105.266C227.164 107.906 225.052 111.404 225.052 115.76C225.052 119.192 226.24 121.898 228.616 123.878C230.992 125.858 233.896 127.31 237.328 128.234C240.892 129.158 245.842 130.214 252.178 131.402C260.626 132.854 267.424 134.438 272.572 136.154C277.852 137.738 282.34 140.51 286.036 144.47C289.732 148.43 291.58 153.974 291.58 161.102C291.58 170.606 287.488 178.196 279.304 183.872C271.252 189.416 260.23 192.188 246.238 192.188ZM361.172 175.556C373.712 175.556 383.81 171.332 391.466 162.884L401.762 175.16C397.142 180.704 391.268 184.928 384.14 187.832C377.144 190.736 369.29 192.188 360.578 192.188C349.49 192.188 339.656 189.944 331.076 185.456C322.496 180.836 315.83 174.434 311.078 166.25C306.458 158.066 304.148 148.826 304.148 138.53C304.148 128.366 306.392 119.192 310.88 111.008C315.5 102.824 321.77 96.488 329.69 92C337.742 87.38 346.784 85.07 356.816 85.07C366.32 85.07 374.966 87.248 382.754 91.604C390.542 95.828 396.746 101.834 401.366 109.622C405.986 117.41 408.362 126.386 408.494 136.55L325.136 152.786C327.776 160.046 332.198 165.656 338.402 169.616C344.738 173.576 352.328 175.556 361.172 175.556ZM356.816 101.108C350.216 101.108 344.276 102.626 338.996 105.662C333.848 108.698 329.822 112.988 326.918 118.532C324.014 123.944 322.562 130.28 322.562 137.54V139.52L389.684 126.848C387.968 119.192 384.14 112.988 378.2 108.236C372.26 103.484 365.132 101.108 356.816 101.108Z" fill="#222222"/>
<path d="M72.964 327.188C62.536 327.188 53.164 324.878 44.848 320.258C36.532 315.638 29.998 309.302 25.246 301.25C20.626 293.066 18.316 283.826 18.316 273.53C18.316 263.234 20.626 254.06 25.246 246.008C29.998 237.824 36.532 231.488 44.848 227C53.164 222.38 62.536 220.07 72.964 220.07C83.392 220.07 92.698 222.38 100.882 227C109.198 231.488 115.666 237.824 120.286 246.008C125.038 254.06 127.414 263.234 127.414 273.53C127.414 283.826 125.038 293.066 120.286 301.25C115.666 309.302 109.198 315.638 100.882 320.258C92.698 324.878 83.392 327.188 72.964 327.188ZM72.964 310.556C79.696 310.556 85.702 309.038 90.982 306.002C96.394 302.834 100.618 298.478 103.654 292.934C106.69 287.258 108.208 280.79 108.208 273.53C108.208 266.27 106.69 259.868 103.654 254.324C100.618 248.648 96.394 244.292 90.982 241.256C85.702 238.22 79.696 236.702 72.964 236.702C66.232 236.702 60.16 238.22 54.748 241.256C49.468 244.292 45.244 248.648 42.076 254.324C39.04 259.868 37.522 266.27 37.522 273.53C37.522 280.79 39.04 287.258 42.076 292.934C45.244 298.478 49.468 302.834 54.748 306.002C60.16 309.038 66.232 310.556 72.964 310.556ZM204.39 220.07C214.554 220.07 223.662 222.314 231.714 226.802C239.766 231.29 246.036 237.56 250.524 245.612C255.144 253.664 257.454 262.97 257.454 273.53C257.454 284.09 255.144 293.462 250.524 301.646C246.036 309.698 239.766 315.968 231.714 320.456C223.662 324.944 214.554 327.188 204.39 327.188C196.866 327.188 189.936 325.736 183.6 322.832C177.396 319.928 172.116 315.704 167.76 310.16V364.412H148.752V221.06H166.968V237.692C171.192 231.884 176.538 227.528 183.006 224.624C189.474 221.588 196.602 220.07 204.39 220.07ZM202.806 310.556C209.538 310.556 215.544 309.038 220.824 306.002C226.236 302.834 230.46 298.478 233.496 292.934C236.664 287.258 238.248 280.79 238.248 273.53C238.248 266.27 236.664 259.868 233.496 254.324C230.46 248.648 226.236 244.292 220.824 241.256C215.544 238.22 209.538 236.702 202.806 236.702C196.206 236.702 190.2 238.286 184.788 241.454C179.508 244.49 175.284 248.78 172.116 254.324C169.08 259.868 167.562 266.27 167.562 273.53C167.562 280.79 169.08 287.258 172.116 292.934C175.152 298.478 179.376 302.834 184.788 306.002C190.2 309.038 196.206 310.556 202.806 310.556ZM326.088 310.556C338.628 310.556 348.726 306.332 356.382 297.884L366.678 310.16C362.058 315.704 356.184 319.928 349.056 322.832C342.06 325.736 334.206 327.188 325.494 327.188C314.406 327.188 304.572 324.944 295.992 320.456C287.412 315.836 280.746 309.434 275.994 301.25C271.374 293.066 269.064 283.826 269.064 273.53C269.064 263.366 271.308 254.192 275.796 246.008C280.416 237.824 286.686 231.488 294.606 227C302.658 222.38 311.7 220.07 321.732 220.07C331.236 220.07 339.882 222.248 347.67 226.604C355.458 230.828 361.662 236.834 366.282 244.622C370.902 252.41 373.278 261.386 373.41 271.55L290.052 287.786C292.692 295.046 297.114 300.656 303.318 304.616C309.654 308.576 317.244 310.556 326.088 310.556ZM321.732 236.108C315.132 236.108 309.192 237.626 303.912 240.662C298.764 243.698 294.738 247.988 291.834 253.532C288.93 258.944 287.478 265.28 287.478 272.54V274.52L354.6 261.848C352.884 254.192 349.056 247.988 343.116 243.236C337.176 238.484 330.048 236.108 321.732 236.108ZM451.087 220.07C464.419 220.07 474.979 223.964 482.767 231.752C490.687 239.408 494.647 250.694 494.647 265.61V326H475.639V267.788C475.639 257.624 473.197 249.968 468.313 244.82C463.429 239.672 456.433 237.098 447.325 237.098C437.029 237.098 428.911 240.134 422.971 246.206C417.031 252.146 414.061 260.726 414.061 271.946V326H395.053V221.06H413.269V236.9C417.097 231.488 422.245 227.33 428.713 224.426C435.313 221.522 442.771 220.07 451.087 220.07Z" fill="#9742EB"/>
</svg>
