<svg width="963" height="378" viewBox="0 0 963 378" fill="none" xmlns="http://www.w3.org/2000/svg">
<path fill-rule="evenodd" clip-rule="evenodd" d="M187 378C290.277 378 374 294.277 374 191C374 157.193 365.029 125.481 349.337 98.1157L240.25 328.633C238.265 332.826 234.042 335.5 229.403 335.5H68.2955C100.584 362.056 141.93 378 187 378ZM23.7191 282.219L132.735 51.8981C134.727 47.689 138.975 45.0125 143.632 45.0321L304.736 45.709C272.591 19.628 231.62 4 187 4C83.7228 4 0 87.7228 0 191C0 224.123 8.61201 255.235 23.7191 282.219Z" fill="#222222"/>
<path d="M485.658 58.538C474.306 58.538 468.63 64.676 468.63 76.952V86.06H499.32V101.702H469.026V191H450.018V76.754C450.018 66.326 453.054 58.076 459.126 52.004C465.198 45.932 473.712 42.896 484.668 42.896C488.892 42.896 492.852 43.424 496.548 44.48C500.244 45.536 503.412 47.054 506.052 49.034L500.31 63.488C495.954 60.188 491.07 58.538 485.658 58.538ZM613.441 86.06V191H595.423V175.16C591.595 180.572 586.513 184.796 580.177 187.832C573.973 190.736 567.175 192.188 559.783 192.188C545.791 192.188 534.769 188.36 526.717 180.704C518.665 172.916 514.639 161.498 514.639 146.45V86.06H533.647V144.272C533.647 154.436 536.089 162.158 540.973 167.438C545.857 172.586 552.853 175.16 561.961 175.16C571.993 175.16 579.913 172.124 585.721 166.052C591.529 159.98 594.433 151.4 594.433 140.312V86.06H613.441ZM678.238 192.188C669.658 192.188 661.408 191.066 653.488 188.822C645.568 186.446 639.364 183.476 634.876 179.912L642.796 164.864C647.416 168.164 653.026 170.804 659.626 172.784C666.226 174.764 672.892 175.754 679.624 175.754C696.256 175.754 704.572 171.002 704.572 161.498C704.572 158.33 703.45 155.822 701.206 153.974C698.962 152.126 696.124 150.806 692.692 150.014C689.392 149.09 684.64 148.1 678.436 147.044C669.988 145.724 663.058 144.206 657.646 142.49C652.366 140.774 647.812 137.87 643.984 133.778C640.156 129.686 638.242 123.944 638.242 116.552C638.242 107.048 642.202 99.458 650.122 93.782C658.042 87.974 668.668 85.07 682 85.07C688.996 85.07 695.992 85.928 702.988 87.644C709.984 89.36 715.726 91.67 720.214 94.574L712.096 109.622C703.516 104.078 693.418 101.306 681.802 101.306C673.75 101.306 667.612 102.626 663.388 105.266C659.164 107.906 657.052 111.404 657.052 115.76C657.052 119.192 658.24 121.898 660.616 123.878C662.992 125.858 665.896 127.31 669.328 128.234C672.892 129.158 677.842 130.214 684.178 131.402C692.626 132.854 699.424 134.438 704.572 136.154C709.852 137.738 714.34 140.51 718.036 144.47C721.732 148.43 723.58 153.974 723.58 161.102C723.58 170.606 719.488 178.196 711.304 183.872C703.252 189.416 692.23 192.188 678.238 192.188ZM793.172 175.556C805.712 175.556 815.81 171.332 823.466 162.884L833.762 175.16C829.142 180.704 823.268 184.928 816.14 187.832C809.144 190.736 801.29 192.188 792.578 192.188C781.49 192.188 771.656 189.944 763.076 185.456C754.496 180.836 747.83 174.434 743.078 166.25C738.458 158.066 736.148 148.826 736.148 138.53C736.148 128.366 738.392 119.192 742.88 111.008C747.5 102.824 753.77 96.488 761.69 92C769.742 87.38 778.784 85.07 788.816 85.07C798.32 85.07 806.966 87.248 814.754 91.604C822.542 95.828 828.746 101.834 833.366 109.622C837.986 117.41 840.362 126.386 840.494 136.55L757.136 152.786C759.776 160.046 764.198 165.656 770.402 169.616C776.738 173.576 784.328 175.556 793.172 175.556ZM788.816 101.108C782.216 101.108 776.276 102.626 770.996 105.662C765.848 108.698 761.822 112.988 758.918 118.532C756.014 123.944 754.562 130.28 754.562 137.54V139.52L821.684 126.848C819.968 119.192 816.14 112.988 810.2 108.236C804.26 103.484 797.132 101.108 788.816 101.108Z" fill="#222222"/>
<path d="M504.964 327.188C494.536 327.188 485.164 324.878 476.848 320.258C468.532 315.638 461.998 309.302 457.246 301.25C452.626 293.066 450.316 283.826 450.316 273.53C450.316 263.234 452.626 254.06 457.246 246.008C461.998 237.824 468.532 231.488 476.848 227C485.164 222.38 494.536 220.07 504.964 220.07C515.392 220.07 524.698 222.38 532.882 227C541.198 231.488 547.666 237.824 552.286 246.008C557.038 254.06 559.414 263.234 559.414 273.53C559.414 283.826 557.038 293.066 552.286 301.25C547.666 309.302 541.198 315.638 532.882 320.258C524.698 324.878 515.392 327.188 504.964 327.188ZM504.964 310.556C511.696 310.556 517.702 309.038 522.982 306.002C528.394 302.834 532.618 298.478 535.654 292.934C538.69 287.258 540.208 280.79 540.208 273.53C540.208 266.27 538.69 259.868 535.654 254.324C532.618 248.648 528.394 244.292 522.982 241.256C517.702 238.22 511.696 236.702 504.964 236.702C498.232 236.702 492.16 238.22 486.748 241.256C481.468 244.292 477.244 248.648 474.076 254.324C471.04 259.868 469.522 266.27 469.522 273.53C469.522 280.79 471.04 287.258 474.076 292.934C477.244 298.478 481.468 302.834 486.748 306.002C492.16 309.038 498.232 310.556 504.964 310.556ZM636.39 220.07C646.554 220.07 655.662 222.314 663.714 226.802C671.766 231.29 678.036 237.56 682.524 245.612C687.144 253.664 689.454 262.97 689.454 273.53C689.454 284.09 687.144 293.462 682.524 301.646C678.036 309.698 671.766 315.968 663.714 320.456C655.662 324.944 646.554 327.188 636.39 327.188C628.866 327.188 621.936 325.736 615.6 322.832C609.396 319.928 604.116 315.704 599.76 310.16V364.412H580.752V221.06H598.968V237.692C603.192 231.884 608.538 227.528 615.006 224.624C621.474 221.588 628.602 220.07 636.39 220.07ZM634.806 310.556C641.538 310.556 647.544 309.038 652.824 306.002C658.236 302.834 662.46 298.478 665.496 292.934C668.664 287.258 670.248 280.79 670.248 273.53C670.248 266.27 668.664 259.868 665.496 254.324C662.46 248.648 658.236 244.292 652.824 241.256C647.544 238.22 641.538 236.702 634.806 236.702C628.206 236.702 622.2 238.286 616.788 241.454C611.508 244.49 607.284 248.78 604.116 254.324C601.08 259.868 599.562 266.27 599.562 273.53C599.562 280.79 601.08 287.258 604.116 292.934C607.152 298.478 611.376 302.834 616.788 306.002C622.2 309.038 628.206 310.556 634.806 310.556ZM758.088 310.556C770.628 310.556 780.726 306.332 788.382 297.884L798.678 310.16C794.058 315.704 788.184 319.928 781.056 322.832C774.06 325.736 766.206 327.188 757.494 327.188C746.406 327.188 736.572 324.944 727.992 320.456C719.412 315.836 712.746 309.434 707.994 301.25C703.374 293.066 701.064 283.826 701.064 273.53C701.064 263.366 703.308 254.192 707.796 246.008C712.416 237.824 718.686 231.488 726.606 227C734.658 222.38 743.7 220.07 753.732 220.07C763.236 220.07 771.882 222.248 779.67 226.604C787.458 230.828 793.662 236.834 798.282 244.622C802.902 252.41 805.278 261.386 805.41 271.55L722.052 287.786C724.692 295.046 729.114 300.656 735.318 304.616C741.654 308.576 749.244 310.556 758.088 310.556ZM753.732 236.108C747.132 236.108 741.192 237.626 735.912 240.662C730.764 243.698 726.738 247.988 723.834 253.532C720.93 258.944 719.478 265.28 719.478 272.54V274.52L786.6 261.848C784.884 254.192 781.056 247.988 775.116 243.236C769.176 238.484 762.048 236.108 753.732 236.108ZM883.087 220.07C896.419 220.07 906.979 223.964 914.767 231.752C922.687 239.408 926.647 250.694 926.647 265.61V326H907.639V267.788C907.639 257.624 905.197 249.968 900.313 244.82C895.429 239.672 888.433 237.098 879.325 237.098C869.029 237.098 860.911 240.134 854.971 246.206C849.031 252.146 846.061 260.726 846.061 271.946V326H827.053V221.06H845.269V236.9C849.097 231.488 854.245 227.33 860.713 224.426C867.313 221.522 874.771 220.07 883.087 220.07Z" fill="#222222"/>
</svg>
