<svg width="374" height="374" viewBox="0 0 374 374" fill="none" xmlns="http://www.w3.org/2000/svg">
<path fill-rule="evenodd" clip-rule="evenodd" d="M187 374C290.277 374 374 290.277 374 187C374 153.193 365.029 121.481 349.337 94.1156L240.25 324.633C238.265 328.826 234.042 331.5 229.403 331.5H68.2954C100.584 358.056 141.93 374 187 374ZM304.736 41.709C272.591 15.628 231.621 0 187 0C83.7227 0 0 83.7228 0 187C0 220.123 8.61182 251.235 23.719 278.219L132.735 47.8981C134.727 43.689 138.975 41.0125 143.632 41.0321L304.736 41.709Z" fill="#9742EB"/>
</svg>
